<svg width="43" height="45" viewBox="0 0 43 45" fill="none" xmlns="http://www.w3.org/2000/svg">
<path d="M25 13.7143V7C25 4.23857 22.7614 2 20 2H7C4.23858 2 2 4.23858 2 7V38C2 40.7614 4.23858 43 7 43H20C22.7614 43 25 40.7614 25 38V33.3529" stroke="#2B2B2B" stroke-width="4"/>
<path d="M42.5607 22.6119C43.1464 23.1977 43.1464 24.1475 42.5607 24.7333L33.0147 34.2792C32.4289 34.865 31.4792 34.865 30.8934 34.2792C30.3076 33.6934 30.3076 32.7437 30.8934 32.1579L39.3787 23.6726L30.8934 15.1873C30.3076 14.6015 30.3076 13.6518 30.8934 13.066C31.4792 12.4802 32.4289 12.4802 33.0147 13.066L42.5607 22.6119ZM12.0078 23.6726L12.0078 22.1726L41.5 22.1726L41.5 23.6726L41.5 25.1726L12.0078 25.1726L12.0078 23.6726Z" fill="#2B2B2B"/>
</svg>
